<svg width="485" height="337" viewBox="0 0 485 337" fill="none" xmlns="http://www.w3.org/2000/svg">
<g filter="url(#filter0_d_240_7248)">
<path d="M337.789 305H111.142C89.1554 304.985 68.0276 297.429 52.1817 283.915C36.3357 270.4 27.0002 251.975 26.1294 232.495C25.2586 213.016 32.92 193.993 47.5098 179.409C62.0996 164.825 82.4866 155.81 104.403 154.252C107.528 134.685 117.494 116.478 132.898 102.194C148.302 87.91 168.369 78.2676 190.276 74.6232C212.183 70.9788 234.827 73.5158 255.023 81.8775C275.219 90.2391 291.95 104.004 302.862 121.237C322.877 115.094 344.502 114.376 364.978 119.175C385.455 123.974 403.855 134.072 417.832 148.181C431.809 162.291 440.73 179.772 443.456 198.395C446.182 217.018 442.59 235.94 433.138 252.745C427.591 267.93 416.762 281.166 402.203 290.554C387.645 299.942 370.107 304.999 352.105 305H337.789Z" fill="url(#paint0_linear_240_7248)"/>
<path d="M352.105 303.95C361.246 303.95 370.232 302.656 378.816 300.104C387.117 297.636 394.909 294.034 401.978 289.399C408.964 284.818 415.089 279.33 420.181 273.087C425.337 266.767 429.317 259.814 432.011 252.422L432.039 252.346L432.079 252.275C435.662 245.927 438.421 239.211 440.279 232.314C442.192 225.217 443.161 217.885 443.161 210.52C443.161 204.18 442.441 197.845 441.021 191.689C439.636 185.691 437.571 179.791 434.881 174.153C432.241 168.617 428.972 163.278 425.166 158.283C421.397 153.336 417.067 148.683 412.299 144.455C407.53 140.227 402.283 136.388 396.703 133.046C391.07 129.671 385.048 126.773 378.805 124.432C372.446 122.047 365.792 120.216 359.027 118.988C352.085 117.729 344.94 117.09 337.789 117.09C325.95 117.09 314.33 118.818 303.25 122.225L302.315 122.512L301.83 121.747C292.813 107.532 279.697 95.5929 263.901 87.2222C255.912 82.9889 247.329 79.7175 238.391 77.499C229.169 75.2103 219.591 74.0498 209.922 74.0498C196.917 74.0498 184.221 76.1252 172.189 80.2183C160.565 84.1724 149.901 89.8843 140.495 97.1952C131.142 104.464 123.381 113.041 117.427 122.687C111.326 132.57 107.338 143.237 105.575 154.394L105.443 155.229L104.495 155.295C93.889 156.031 83.6846 158.507 74.1654 162.654C64.9159 166.684 56.6564 172.134 49.6164 178.853C35.1506 192.66 27.184 210.65 27.184 229.507C27.184 239.557 29.4036 249.306 33.7813 258.483C35.8854 262.894 38.4897 267.148 41.5219 271.128C44.5256 275.07 47.9751 278.777 51.7746 282.146C55.5741 285.515 59.755 288.574 64.2009 291.237C68.6893 293.925 73.4873 296.234 78.4618 298.1C88.8118 301.982 99.8068 303.95 111.141 303.95H337.789H352.105ZM352.105 305H337.789H111.141C64.1194 305 26 271.2 26 229.507C26 189.825 60.5296 157.293 104.403 154.248C111.66 108.333 156.137 73 209.922 73C249.824 73 284.603 92.4452 302.862 121.233C313.804 117.868 325.556 116.04 337.789 116.04C396.639 116.04 444.345 158.341 444.345 210.52C444.345 225.696 440.309 240.038 433.138 252.745C422.085 283.068 389.984 305 352.105 305Z" fill="white" fill-opacity="0.8"/>
</g>
<path d="M108.148 214.763C162.548 214.763 206.648 170.439 206.648 115.763C206.648 61.087 162.548 16.7632 108.148 16.7632C53.7479 16.7632 9.64795 61.087 9.64795 115.763C9.64795 170.439 53.7479 214.763 108.148 214.763Z" fill="#FA9E42"/>
<g filter="url(#filter1_f_240_7248)">
<path d="M101.03 101.684C133.767 84.2962 152.077 54.7094 141.928 35.6002C131.778 16.4909 97.0115 15.0954 64.2749 32.4833C31.5383 49.8712 13.228 79.4579 23.3778 98.5672C33.5275 117.676 68.2938 119.072 101.03 101.684Z" fill="#F8E36F"/>
</g>
<g filter="url(#filter2_f_240_7248)">
<g filter="url(#filter3_d_240_7248)">
<path d="M289.345 305H97.913C79.3426 304.986 61.4976 297.789 48.1137 284.915C34.7298 272.041 26.8447 254.489 26.1092 235.933C25.3737 217.377 31.8448 199.256 44.1677 185.364C56.4906 171.471 73.71 162.884 92.221 161.4C94.8608 142.76 103.278 125.417 116.289 111.81C129.299 98.2032 146.248 89.0179 164.752 85.5463C183.255 82.0747 202.381 84.4915 219.439 92.4567C236.497 100.422 250.628 113.535 259.845 129.95C276.75 124.098 295.015 123.414 312.31 127.986C329.605 132.557 345.146 142.176 356.952 155.617C368.757 169.057 376.292 185.71 378.594 203.45C380.896 221.19 377.862 239.214 369.879 255.223C365.194 269.688 356.047 282.296 343.751 291.239C331.455 300.182 316.641 305 301.437 305H289.345Z" fill="url(#paint1_linear_240_7248)"/>
<path d="M301.437 304C309.157 304 316.748 302.767 323.998 300.336C331.009 297.985 337.59 294.554 343.56 290.139C349.462 285.775 354.635 280.547 358.936 274.6C363.29 268.58 366.652 261.957 368.928 254.915L368.951 254.843L368.985 254.775C372.011 248.728 374.341 242.33 375.911 235.761C377.526 229 378.345 222.015 378.345 214.999C378.345 208.96 377.737 202.925 376.537 197.062C375.368 191.348 373.623 185.728 371.352 180.357C369.121 175.084 366.361 169.997 363.146 165.24C359.962 160.527 356.306 156.095 352.278 152.067C348.25 148.039 343.819 144.383 339.106 141.199C334.348 137.984 329.261 135.224 323.988 132.993C318.617 130.722 312.997 128.977 307.283 127.808C301.42 126.608 295.385 126 289.345 126C279.346 126 269.531 127.645 260.172 130.891L259.383 131.165L258.973 130.436C251.357 116.894 240.279 105.522 226.937 97.5479C220.189 93.5153 212.94 90.399 205.391 88.2857C197.602 86.1055 189.512 85 181.345 85C170.361 85 159.638 86.977 149.475 90.876C139.657 94.6427 130.65 100.084 122.705 107.048C114.806 113.972 108.251 122.142 103.221 131.331C98.0685 140.745 94.7006 150.907 93.2113 161.535L93.0998 162.33L92.299 162.393C83.3408 163.094 74.7219 165.453 66.6818 169.403C58.8694 173.242 51.8932 178.434 45.947 184.834C33.7289 197.987 27 215.123 27 233.087C27 242.66 28.8748 251.947 32.5723 260.689C34.3495 264.891 36.5491 268.943 39.1102 272.734C41.6472 276.489 44.5607 280.02 47.7699 283.23C50.9791 286.439 54.5104 289.352 58.2655 291.889C62.0565 294.45 66.109 296.65 70.3106 298.427C79.0525 302.125 88.3391 304 97.9127 304H289.345H301.437ZM301.437 305H289.345H97.9127C58.1966 305 26 272.803 26 233.087C26 195.286 55.1646 164.297 92.221 161.396C98.3504 117.657 135.917 84 181.345 84C215.048 84 244.422 102.523 259.845 129.946C269.087 126.741 279.012 125 289.345 125C339.051 125 379.345 165.294 379.345 214.999C379.345 229.456 375.936 243.118 369.879 255.223C360.544 284.108 333.431 305 301.437 305Z" fill="white" fill-opacity="0.7"/>
</g>
</g>
<defs>
<filter id="filter0_d_240_7248" x="6" y="45" width="478.345" height="292" filterUnits="userSpaceOnUse" color-interpolation-filters="sRGB">
<feFlood flood-opacity="0" result="BackgroundImageFix"/>
<feColorMatrix in="SourceAlpha" type="matrix" values="0 0 0 0 0 0 0 0 0 0 0 0 0 0 0 0 0 0 127 0" result="hardAlpha"/>
<feOffset dx="10" dy="2"/>
<feGaussianBlur stdDeviation="15"/>
<feColorMatrix type="matrix" values="0 0 0 0 0.61408 0 0 0 0 0.649242 0 0 0 0 0.679167 0 0 0 0.796 0"/>
<feBlend mode="normal" in2="BackgroundImageFix" result="effect1_dropShadow_240_7248"/>
<feBlend mode="normal" in="SourceGraphic" in2="effect1_dropShadow_240_7248" result="shape"/>
</filter>
<filter id="filter1_f_240_7248" x="0.577637" y="0.303223" width="164.15" height="133.561" filterUnits="userSpaceOnUse" color-interpolation-filters="sRGB">
<feFlood flood-opacity="0" result="BackgroundImageFix"/>
<feBlend mode="normal" in="SourceGraphic" in2="BackgroundImageFix" result="shape"/>
<feGaussianBlur stdDeviation="10" result="effect1_foregroundBlur_240_7248"/>
</filter>
<filter id="filter2_f_240_7248" x="22" y="80" width="361.345" height="229" filterUnits="userSpaceOnUse" color-interpolation-filters="sRGB">
<feFlood flood-opacity="0" result="BackgroundImageFix"/>
<feBlend mode="normal" in="SourceGraphic" in2="BackgroundImageFix" result="shape"/>
<feGaussianBlur stdDeviation="2" result="effect1_foregroundBlur_240_7248"/>
</filter>
<filter id="filter3_d_240_7248" x="6" y="56" width="413.345" height="281" filterUnits="userSpaceOnUse" color-interpolation-filters="sRGB">
<feFlood flood-opacity="0" result="BackgroundImageFix"/>
<feColorMatrix in="SourceAlpha" type="matrix" values="0 0 0 0 0 0 0 0 0 0 0 0 0 0 0 0 0 0 127 0" result="hardAlpha"/>
<feOffset dx="10" dy="2"/>
<feGaussianBlur stdDeviation="15"/>
<feColorMatrix type="matrix" values="0 0 0 0 0.7375 0 0 0 0 0.731354 0 0 0 0 0.731354 0 0 0 0.502 0"/>
<feBlend mode="normal" in2="BackgroundImageFix" result="effect1_dropShadow_240_7248"/>
<feBlend mode="normal" in="SourceGraphic" in2="effect1_dropShadow_240_7248" result="shape"/>
</filter>
<linearGradient id="paint0_linear_240_7248" x1="235.203" y1="73.0024" x2="333.823" y2="341.918" gradientUnits="userSpaceOnUse">
<stop stop-color="white" stop-opacity="0.604"/>
<stop offset="1" stop-color="white" stop-opacity="0.2"/>
</linearGradient>
<linearGradient id="paint1_linear_240_7248" x1="202.698" y1="84.0024" x2="305.341" y2="332.166" gradientUnits="userSpaceOnUse">
<stop stop-color="white" stop-opacity="0.604"/>
<stop offset="1" stop-color="white" stop-opacity="0.2"/>
</linearGradient>
</defs>
</svg>
